<svg width="270" height="10" viewBox="0 0 270 10" fill="none" xmlns="http://www.w3.org/2000/svg">
<path d="M269.563 4.19548L269.586 4.40465H269.596L269.599 4.44488H269.59L269.613 4.65137H269.507L269.483 4.44757L255.164 4.83909C255.164 4.764 255.164 4.69161 255.164 4.61652L256.229 4.58701L269.483 4.40733L269.46 4.20083H269.566L269.563 4.19548ZM16.7685 9.00119L27.6748 9.1326L33.128 9.19696L38.5812 9.24256L49.4877 9.33105L60.3941 9.39005C67.6651 9.43833 74.936 9.441 82.2036 9.4705C89.4746 9.47855 96.7422 9.48927 104.013 9.5H117.885L131.76 9.47587L135.23 9.4705L138.696 9.45441L145.632 9.42492L152.568 9.39274L159.504 9.34178C178 9.21038 196.499 8.99583 214.981 8.63379C220.255 8.53189 225.526 8.41926 230.797 8.30126C243.816 8.18862 256.835 8.03307 269.848 7.8373L269.789 7.27414C269.858 7.27414 269.928 7.26877 269.997 7.26877L269.387 1.58611C269.318 1.58611 269.248 1.58611 269.178 1.5888L269.118 1.02563C252.48 1.51103 235.832 1.8972 219.18 2.19219C217.741 2.20292 216.301 2.21633 214.862 2.22706C159.255 2.59714 103.618 2.12783 48.068 0.805725C46.4692 0.76818 44.8671 0.741369 43.2683 0.71187L38.4652 0.634088C35.261 0.588498 32.06 0.542908 28.8557 0.5L29.0813 1.04709C36.0869 1.31527 43.109 1.54589 50.1411 1.70411C53.6572 1.78456 57.1732 1.8677 60.6959 1.9267C64.2152 1.98302 67.7347 2.03933 71.2574 2.09297C85.3448 2.28337 99.4356 2.40405 113.5 2.59446L118.82 2.67491L124.141 2.74195L134.782 2.87872C137.671 2.90822 140.563 2.94308 143.453 2.97526C130.612 3.03426 117.769 3.06377 104.929 3.05036C104.348 3.04232 103.768 3.03963 103.187 3.03159L103.18 3.05036C72.196 3.01282 41.2149 2.76341 10.2338 2.29947C3.83528 2.20293 1.45039 2.43356 1.33762 3.1925C1.10211 4.80156 0.0638612 6.3972 -0.00247946 8.00894C-0.0124306 8.24493 3.21171 8.68206 5.45735 8.79469C9.00326 8.96901 12.9804 8.94488 16.7751 9.00388" fill="#E82900"/>
</svg>
